<svg xmlns="http://www.w3.org/2000/svg" xmlns:xlink="http://www.w3.org/1999/xlink" xmlns:inkscape="http://www.inkscape.org/namespaces/inkscape" version="1.1" width="4007.17" height="4007.17" viewBox="0 0 4007.17 4007.17">
<defs>
<clipPath id="clip_1">
<path transform="matrix(1,0,0,-1,0,4007.17)" d="M0 4007.17H4007.17V0H0Z"/>
</clipPath>
<clipPath id="clip_2">
<path transform="matrix(1,0,0,-1,0,4007.17)" d="M198.96 301.234H3764.21V1640.46H198.96Z"/>
</clipPath>
<clipPath id="clip_3">
<path transform="matrix(1,0,0,-1,0,4007.17)" d="M198.96 301.234H3764.21V1640.46H198.96Z"/>
</clipPath>
<path id="font_4_33" d="M.41799928-.011993408C.34666953-.011993408 .28217063 .0035044354 .22450257 .034500123 .16683452 .06549581 .12150065 .10849508 .08850098 .16349793 .0555013 .21850078 .039001466 .28067018 .039001466 .3500061 .039001466 .41933189 .0555013 .48149619 .08850098 .536499 .12150065 .5915019 .16683452 .63450118 .22450257 .6654968 .28217063 .6965027 .34700523 .7120056 .41900636 .7120056 .47966514 .7120056 .53449508 .70133468 .5834961 .6799927 .63249716 .6586609 .67366537 .6279958 .70700076 .58799746L.6029968 .4920044C.55566409 .54667159 .4969991 .5740051 .42700196 .5740051 .383667 .5740051 .34499613 .56450399 .31098939 .5455017 .2769928 .52649948 .25049339 .4999949 .23149109 .46598817 .21249898 .43199159 .20300293 .3933309 .20300293 .3500061 .20300293 .30667115 .21249898 .26800028 .23149109 .23399353 .25049339 .19999695 .2769928 .17349752 .31098939 .15449524 .34499613 .13550313 .383667 .12600708 .42700196 .12600708 .4969991 .12600708 .55566409 .15367127 .6029968 .20899964L.70700076 .11300659C.67366537 .07233683 .6323293 .04133606 .58299258 .020004273 .53366598-.0013275147 .4786682-.011993408 .41799928-.011993408Z"/>
<path id="font_4_82" d="M.7250061 .69999697V0H.56300356V.28700257H.24499512V0H.08299255V.69999697H.24499512V.42399598H.56300356V.69999697H.7250061Z"/>
<path id="font_4_48" d="M.625 .13000489V0H.08299255V.69999697H.6119995V.5700073H.2440033V.41799928H.56900027V.29200746H.2440033V.13000489H.625Z"/>
<path id="font_4_73" d="M.24499512 .5700073V.3849945H.56900027V.25500489H.24499512V0H.08299255V.69999697H.6119995V.5700073H.24499512Z"/>
</defs>
<g>
<g inkscape:groupmode="layer" inkscape:label="&#x0421;&#x043B;&#x043E;&#x0439; 1">
<g clip-path="url(#clip_1)">
<path transform="matrix(1,0,0,-1,788.02,651.9099)" stroke-width="195.62" stroke-linecap="round" stroke-miterlimit="10" stroke-linejoin="miter" fill="none" stroke="#000000" d="M0 0H273.56C273.56 0 1098.39 12.89 1099.62-782.41 1100.85-1577.41 273.56-1596.17 273.56-1596.17L0-1592.6"/>
<path transform="matrix(1,0,0,-1,2926.5,2247.84)" stroke-width="195.62" stroke-linecap="round" stroke-miterlimit="10" stroke-linejoin="miter" fill="none" stroke="#000000" d="M0 0H-787.53C-806.17 0-818.81 18.94-811.67 36.16L-171.98 1577.66C-162.03 1601.64-128.09 1601.72-118.02 1577.8L581.29 .01"/>
<path transform="matrix(1,0,0,-1,604.8096,2126.8414)" d="M0 0C.68-3.28 2.5-6.18 5.02-8.38 16.21-18.17 56.85-54.78 61.62-73.86 67.16-96.01 70.48-103.03 69-120.75 67.52-138.47 62.35-210.47-29.95-211.95-112.64-213.27-136.96-149.7-141.13-136.45-141.6-134.95-141.83-133.39-141.84-131.82L-144.48 431.09C-144.53 441.18-135.57 448.95-125.58 447.46-117.18 446.26-6.66 443.11 34.5 441.97 43.07 441.73 49.92 434.79 50.06 426.22L52.75 268.39C52.75 268.39 53.49 211.41 38.23 153.32 24.64 101.57 6.35 56.08 2.52 46.76 2.02 45.55 1.68 44.32 1.49 43.03 .46 36.09-2.65 12.72-.02-.01Z"/>
<path transform="matrix(1,0,0,-1,461.0796,1607.2913)" d="M0 0-.74 989.5C-.74 989.5 4.8 1042.3 87.87 938.55 170.94 834.8 252.54 716.53 279.12 560.97 305.7 405.41 300.78 366.02 300.78 366.02L301.14-5.16C301.14-5.16 303.73-43.56 274.2-43.56 244.67-43.56 28.06-34.7 28.06-34.7 28.06-34.7 .02-26.33 0 .01Z"/>
<g>
<g clip-path="url(#clip_2)">
<g>
<g clip-path="url(#clip_3)">
<use data-text="C" xlink:href="#font_4_33" transform="matrix(1200.03,0,0,-1200.03,198.96,3386.7198)"/>
<use data-text="H" xlink:href="#font_4_82" transform="matrix(1200.03,0,0,-1200.03,1126.5833,3386.7198)"/>
<use data-text="E" xlink:href="#font_4_48" transform="matrix(1200.03,0,0,-1200.03,2144.2088,3386.7198)"/>
<use data-text="F" xlink:href="#font_4_73" transform="matrix(1200.03,0,0,-1200.03,2997.4302,3386.7198)"/>
</g>
</g>
</g>
</g>
</g>
</g>
</g>
</svg>
